<mxfile host="65bd71144e">
    <diagram id="cYZoqZACoP1CmAKGnWrR" name="Page-1">
        <mxGraphModel dx="2113" dy="1098" grid="0" gridSize="10" guides="1" tooltips="1" connect="1" arrows="1" fold="1" page="0" pageScale="1" pageWidth="850" pageHeight="1100" math="0" shadow="0">
            <root>
                <mxCell id="0"/>
                <mxCell id="1" parent="0"/>
                <mxCell id="42" value="" style="rounded=0;whiteSpace=wrap;html=1;" vertex="1" parent="1">
                    <mxGeometry x="-417" y="366" width="1174" height="1278" as="geometry"/>
                </mxCell>
                <mxCell id="8" value="" style="rounded=0;whiteSpace=wrap;html=1;fillColor=#dae8fc;strokeColor=#6c8ebf;" vertex="1" parent="1">
                    <mxGeometry x="173.43" y="841" width="120" height="334" as="geometry"/>
                </mxCell>
                <mxCell id="2" value="" style="shape=image;verticalLabelPosition=bottom;labelBackgroundColor=default;verticalAlign=top;aspect=fixed;imageAspect=0;image=data:image/png,iVBORw0KGgoAAAANSUhEUgAAAXgAAAGYCAYAAABI2fkkAAAAAXNSR0IArs4c6QAAAARnQU1BAACxjwv8YQUAAAAJcEhZcwAADsMAAA7DAcdvqGQAAFD/SURBVHhe7d1/dBPnnS/+t2zJsmRZ2Ba2BDjGGEyAoFB+2mGhvqThXgrZELL53jhNS29MaJum58Y3CdlLe0Ibkh5Om4Z1vtsuTUnI2bTZOLdpCIXwZUsSrxquY3ACMSbExcQYrwnyb1uWJcuS0fcPPINmNLJlIxt5eL/O4Rz8PI9G0kj6zDOf55l5NHPnzg2CiIhUJ0FeQERE6sAAT0SkUgzwREQqxQBPRKRSDPBERCrFAE9EpFIM8EREKsUAT0SkUgzwREQqxQBPRKRSDPBERCrFAE9EpFIM8EREKsUAT0SkUgzwREQqxQBPRKRSDPBERCrFAE9EpFIM8EREKsUAT0SkUgzwREQqxQBPRKRSmrlz5wblhTe7nJwcPP744zAajWhra8Pu3bvR3d0tb0ZEFNfGLcAnJiaisLAQq1evhs1mg16vBwAEg0H4fD5cunQJ+/fvx5dffil/6A3HAE9EajAuKZpZs2bh2Wefxbe//W3MnDlTDO4AoNFokJycjNmzZyM/P19Snp+fj4cffhjPP/88li1bJtYREdHoxTzAWywWfPe734XFYgGGeuydnZ2or69HfX09Ghoa4PF45A/DlClT8J3vfAcrVqxAamoqEhJi/tKIiG4qMY+iq1evRlZWFgBgYGAAf/jDH/CTn/wEu3fvxu7du/HCCy/gqaeewttvvw2XyyV/OBERxUjMA3xGRgY0Gg0AoLm5GZWVlfImCAaD+OCDDxTriIgoNmI+yFpSUoLly5cDAC5fvozdu3fD7XbLm4lCBzQjOXDgAI4cOQIAMJlMWLNmDRYvXgyLxYKkpCQAQH9/P7788kv86U9/wuXLl2VbuEqj0aCgoABr167F1KlTxccKg75vvfUWmpqahh1k1ev1eOyxx8Txg5aWFvzzP/8zOjo6JM9FRHSjxbwHX1dXh0AgAACw2Wx45JFHkJGRIW82JmazGU899RTWr1+PadOmiQEaAJKTk3Hbbbfhf/2v/4U5c+ZIHoehsYF//Md/xObNmzF9+nTJY/V6PbKzs2Gz2SSPkdNoNPjWt74lbr+3txd/+MMfGNyJKC4lWiyWn8kLr0dLSwtmz54Ni8UCjUaDqVOnYvXq1Zg2bRouX76Mvr4+SfvBwUH4fD40NzcjMzMTer0eg4OD+PTTT1FTU4P6+np8/vnn6OnpgcFgwMqVK5GYmIiamhr8+c9/xtGjR+FyuZCdnQ2dTge9Xo+MjAycOHFCfA6TyYT/+T//J2655RZoNBpcuXIFFy5cwPHjx3Hu3Dk4nU6kpqairq4OX331FaZMmYLCwkLodDp4PB58/PHH6O/vx9///d/j61//OhISEjAwMIA//vGPOH36tOT9EBHFi5gH+MHBQXz22WfIysrCtGnToNFokJiYiBkzZmD16tXIzs7GhQsX4PV6gaGB2IaGBly+fBkrVqxASkoKAoEAPvjgA1RUVODcuXPo6ekBACQlJeHKlSt4/fXXUVVVhZaWFvT09ODcuXPo7+/H/PnzkZCQgISEBNTW1ooHk/Xr1+NrX/saNBoN3G43Xn31Vezfvx9/+9vfcO7cOdTW1qKiogJfffUVMDSjRx7gv/a1r2Hjxo3QarUYGBjAgQMH8NFHH4W8cyKi+BLzFA2GctqvvPIK/uVf/gWXLl1CMHg1zZ+YmIjFixfjf//v/42lS5fKHzYil8uFv/zlL4o5/cbGRgwMDABD6Zrk5GQAgNFohN1uF3vuDocDtbW1skcPLz09HevXrxcPMO+//z4+/PBDeTMiorgyLgFecObMGTz//PP4p3/6J3z55ZdioE9NTcXmzZtRWFgof0hULBYL1q5dix/+8If4yU9+ghdffBFPP/204kDt1KlTkZaWBgzlzD/99FN5k2ElJCTggQceQGZmJoLBID755BMcOnRI3oyIKO6Ma4AX1NfX41e/+hVeeeUVce57UlIS1q5dC5PJJG8ekclkwmOPPYbnnnsO9913H+x2O7Kzs2E0GpGYmChvDgwFeK1WCwylg4TUULQyMjKQk5MDAPB6vfjss8/EAxURUTybkAAvOHnyJA4dOoTBwUFgKPUxffp0eTNFGo0G3/72t7Fw4UJoNBp0dXXhgw8+wD//8z/jmWeewa5duxSvkHW73eLzJSYmSmbPRKO9vR2nT59GMBiE0WjEgw8+qDhLh4go3kxogMfQLBshV56YmBh1D95msyE3NxcYysX/y7/8C95++22cPXsW7e3tEXvw3d3dYq/dbDZj3rx58iYj2r9/P86fPw8MpZe+/e1vi7diICKKVzEP8Bs3bsT69esVA25iYiJWrVolDoB6vV7xoiSPxyMGYq1WiylTpkgeq9PpoNPpAACBQEA8SAgWL14Mg8EgKQOA1tZWNDY2AkPbveuuu3DLLbfImw3L5/PhX//1X9HS0gIAsFqt+O53vyu5iRoRUbyJ+TTJv/u7v8OaNWvw3/7bf8OKFSuwZMkS3HHHHVi1ahU2bdqE3NxcaDQaBINBfPbZZzh27BgwNL2yoKBAvNWBzWaD2WxGQUEB0tLS0NbWhuXLl4szZPLy8tDb2wubzYaHHnoIS5cuhUajgUajgd/vx/Hjx8XplS6XC3a7HXq9HikpKSgsLMScOXNgtVpx66234u/+7u9w3333obe3N+I8+K6uLjQ3N4vbycjIwNSpU8X0DRFRvIl5gF+8eDFmzJiBhIQEmEwmWCwWWCwWpKeniz3wYDCIM2fO4Pe//72YH8fQlMZ58+ZBo9HAYDBg9uzZyM7OxpdffonPPvsMM2bMwIwZM6DRaJCWloZly5Zh2bJlSE9PR21tLcxmM3Q6XViA7+zshNPpxK233gq9Xo/ExERkZmYiPz8f+fn5mDFjBnQ6Hc6cOYNLly4pBvj+/n50dnait7cXCxYsgFarxfTp05GZmYmamhrxPRARxYuYB/iLFy8iISEBRqMRWq0WiYmJYo/d7Xbjyy+/xB//+Ee89957kuCOobnsCQkJsFqt4mCox+PByZMn0dzcjNOnT4fVd3d349ChQ6iurkZBQYFigMdQqqaqqgoGgwFpaWnQ6/Xi3HiXy4WTJ0/i2LFjGBgYiBjgMXQDNZ1Oh9mzZyMhIQHTpk1DQkICzp07Jz4XEVE8iPnNxoiIKD7EfJCViIjiAwM8EZFKMcATEakUAzwRkUoxwBMRqRQDPBGRSjHAExGpFAM8EZFKMcATEakUAzwRkUoxwBMRqRQDPBGRSjHAExGpFAM8EZFKxfR2wbfeequ8iIiIbpCYBngiIoofTNEQEakUAzwRkUoxwBMRqRQDPBGRSjHAExGpFAM8EZFKMcATEakUAzwRkUoxwBMRqRQDPBGRSjHAExGpFAM8EZFKMcATEakUAzwRkUoxwBMRqRQDPBGRSjHAExGpFAM8EZFKMcATEakUAzwRkUoxwBMRqRQDPBGRSjHAExGpFAM8EZFKMcATEakUAzwRkUpp5s6dG5QX3gxKSkqwfPlyAIDH48FLL72EpqYmeTOahEI/2wMHDuDIkSPyJgCAtLQ0PPHEE8jMzFTFd0DpfSuVjbfQ/drQ0IAXXnhB3oQmSMx78CUlJdizZw9eeuklrFixQl4dF7Zt2yZ+6ePZihUr8NJLL2HPnj0oKSkRy7dt24Y9e/Yo/gttRzdeNL8HoY3837p16+RNJ4W5c+diypQpAACbzYacnBx5E5ogMQ/wsbJt2za8+OKLMf9y5OTkwGazAQDa2tqwfft2PPnkk5O650aTk3AAnwydjUhycnLw4osvYtu2bWLZuXPn0NPTAwBwOp38bd1AcRfg09LSsHPnTuTl5cmrYsJms0Gr1QIAent70d3dLW8yaQwMDOC1117Do48+Kv7bt2+fvBnFoRUrVuChhx5CUlISAKC6ulryOVZXV8sfEndWrFiBJ598EkajUVLe3d2NHTt24NFHH2V65gaLuwBPpHZpaWm4++67xeB+4MCBsAPzvn37JiRfTup2tSs7ztatW4eNGzcCQz0VAJLTUmHwJ7QdABiNRmzfvl0yACbv+QwMDOCNN97AiRMnANlA01//+lcsW7YMRqMRBw4cgN1ul5wZ5OXlYc+ePWhoaMBbb72Fxx9/PKw3ojRIlJOTE9a2ra0Nu3fvFs8Itm3bJnmu0O2EPr66ujrsxx0L8sG10Pceus9C92foa1QqH26bwmdks9nCeqby9xftvmlra8NXX32FRYsWift369atYWd3Iw2Qhj6f/PsSidJnHKtBytAcdVtbG6qqquRNwoTue4HSvh2N4T4HgdJ+aGtrg9frlaRPI/2W5L8L+e9X2F5om2jjBY1swnvwy5cvD/uirl27Nqpce0lJCR5++GHJlyMpKQkPP/yw4oDU17/+9bCAHUlo6iZUXl6eJL+4bt06bN++PeJ2hZykPAjl5eVh586dSEtLw4IFC8TH5+bmIi0tTdI2WsJ7H2lgbuPGjZLXk5SUhLvvvnvMzwuFbRqNRjz++ONhP95FixaJg4vR7JtQmZmZWLRokfi32WxGamqqpA1CnlvpOyR/nUlJSXjooYciDnhimM9448aNMRnEzsjIEPfRSGlCIWUp/81g6LektN9GEu3nEGk/jJXS7xdDn/Ozzz6r+JlcT7ygGxDgPR4Pdu3ahe3bt6OtrQ0Y+oEuWLAAR44ckZQLbZ988knYbDbxxx6ar2xoaAAArFy5MuyLLjz+0UcfxZEjR/DCCy/gtddew8DAADDUYxHyhCdOnMDjjz8uyYMK2xZmAqxYsQLf/OY3AYX89xdffAEAeOCBB2A0GiXPLTxnZmYmCgsLcfbsWXg8HgBAY2PjsD/wWBAGk3ft2iU+75QpUzB37lx506gJ2wzdn0ajETU1NZIcclJSEhYuXAhEuW/khM96x44daGpqEnO7wr8DBw4AId8hOeF1yl9TUVGRvCkwFPzWrl0LhHw/Qh972223XXdwmT59uvj/jo4OSZ3cfffdh8zMTCDC68nMzMR9990ne9TwovkcRvqu79mzJ+JvScmKFSvE36/S80bqdAwXL2hkEx7gP//8czQ1NaG7uxuVlZVieeiXXsnChQvFI//y5cvFHqvQC0lJSYHZbJY8Rniu0QidmihsW6vVwmazSV5DTU2N5DT/zTffhNlsFmfoGIfSS3v27JH0WqZPn46mpiY8+eSTePQ6B0XlP7xHhw5kcpWVleju7kZTUxM+//xzYCjIZWRkyJtGTdhm6IwJj8eD999/HwBw5swZ8ccP2eyl4fZNqNDthRJ6tXv27JGk9OSPR8jrBID3339fPMClpqaGfV8ASM6uhLTDnj17xF6k8F2YCGlpacjNzQWG9sVbb70l1oW+l9GcBUb7OYz0XR9tpyR0e0ePHhV/lydOnEBzczMQodMx1nhBV014gB8vSj+8r776SvL3cNatWxf2RR/OaLYdymKxyItUL9r3LG/X19cHl8sl/i2kFnbt2iX2aifa9R4YIfvujCY4TxT55zDW7zrdeJMywB84cEDSa3300Ufx+OOPjzhwFklaWhpWrlwJyHrF1zNVLTQ1EPov0ilsvAnNE8faWPfNXXfdJfauhdRNaJpgJPIpsqEHDyXyqYvCP6WzpNEITdFFSk1NhLF+DjR5xHWAD+2Vh57yywdZ1q1bpzi4GC2z2YyUlBQAQHNzM06cOCE5PRaEvoZvfvOb4qBQWloafvCDH8DlcsHpdAIKuVGhTVpamtgT3RMHV546nU4EAgFAdtWh3W6Xtbw+TU1NUe2b4Qg9y9DUTeipv5LQsZmioiKxbaTcd2jwDR0gxlD67sEHHwxpPTahqTIMDd7Kv78lJSUoLCxEY2MjMJROueuuu8T60IPdaMZxov0cRvquyz+r1NTUsLJQodsL/UxWrFiB7OxsAEBPTw/OnTsneRxdn7gL8N3d3ejt7QVCZom8+OKLcDqdYq4uNHcoz8OOhcvlQl9fHxCSd1VKA5w4cQI1NTWAbAbLrl27xJygw+EQv8ihYwWhbcZzFs1oZ1WE/uBD96t8hkUsRLNvhiME5dDXKZ9hIZeZmYldu3ZJ3lNbWxveeecdeVNAFnzl+/fhhx+GwWAAQlJ6w92CYDj79u0TB/ExFORDP0fhfb3zzjvi4GLoPhPqh3svkUTzOUTzXQ/tHAj7OXTGWajQ7YV+JkJKdGBgAIcOHYr6QEXRibsADwB79+4Vv9ShXnjhBXHWRKi2KOcSR9Ld3Y1XXnlF7Llh6PRcKUWzb98+xbSAMN3txIkT+OlPf6r4+oUBv4meRTMS+f5ua2tDeXl52Hu8XtHsm+HIg2I0r/Ovf/2r5HNtk825VhLpMw49cxCC3PX0Ol944QXJzKZQHo8HZ8+eRffQVaFK38Xq6mrs2LFj2PeiJNrPIdJ+EL7rTU1NeOutt8LqI4m0vba2Nvz0pz8dc4qVIrtp7yZJNFZpIXdLvN6LjYjGU1z24InimTBmMzAwgDNnzsirieIGe/BERCrFHjwRkUoxwBMRqRQDPBGRSjHAExGpFAM8EZFKMcATEakUAzwRkUoxwBMRqRQDPBGRSjHAExGpFAM8EZFKMcATEakUAzwRkUoxwBMRqRQDPBGRSjHAExGpFAM8EZFKMcATEakUAzwRkUoxwBMRqRQDPBGRSjHAExGpFAM8EZFKMcATEakUAzwRkUoxwBMRqRQDPBGRSmnmzp0blBfSVcnJyTAYDNBqtdBoNPJqmmSCwSACgQC8Xi/6+/vl1USqwx58BCaTCWazGTqdjsFdJTQaDXQ6HcxmM0wmk7yaSHUY4BUkJyfDaDTKi0lFjEYjkpOT5cVEqsIAr8BgMMiLSIX4OZPaMcAr0Gq18qIJl2NLRdm2Vdiyab68akRbNs3Hz39UiHSzXl4VUwV2K36zvQhl21Yhx5Yqr74hCuxWvPT0ahTYrfKqMPHwORONJwZ4BZM5575hdS4K7TZU1jjR5fLJqyeccBDYsDpXXjUujte2wNnuwYPr8kc86Ezmz5koGpxFoyArK0vyd7pZj6c2L0ZWhvSUvs/rx+7f16DJ2Sspj4UcWyqe+M4i1J7vwKv7v5BXKyqwW7H57nk4WdcqecyWTfNRaLdJ2oYaz/chvKbDxy7ivY8a5dXjQvi8AOBXr58a9kDX2toqLyJSjUSLxfIzeeHNLiUlRfK3Qa/FykXT0NLhxdNllTjoaMSxU5ex/DYr1q+aiStXgPqmbsljrtcUkx53LLKhtdOLU3Xt8mpFm++ehyvBIF599wv0+wbF8lN17TjoaMRBRyNq/taBZQsycbKuDc++XI2DjkYcqWxCj3tAsq1YybaasGjuVNQ39cR8H0XS7xtEn9ePArsNaeakYfdfX1+fvIhINdiDVxCpB+/2+LFr36diudDL7vMG8KvXT2HuzDTF3ur2kqUwGXWS3qTw2BSDDgAw4L+C1w/V4Xhti6S+9nwHAIg98Ei97Wh7ymM5M5ATnitJdzXD19rpDespby9Zirxsc8ijpN6tuCB5nfKzjKpap/j6CuxWfOubc/GXj/8TawuzodMm4vVDdbhzeTbyss2Kz4+h12C1GBT3l4A9eFIzVeXgi4uLUVZWhrKyMhQXF8urY67XM4A+b0BePCIhyLZ0eLF1ZwW27qzAL147iTuXZ4cNjBbabcibMQVPl1Xi6bJK9HkDeGj9XEkbAFg4JwP+wCBq668eEMbT8doWPLbLga07K9DQ7JJXAwB27fsUW3dW4JX9ZzHgv4J3Ky6I73XrzoqwA6B9jgXP/e4T8TFL5mWFDTD/l2UzcOA/LqC714f775oDDB0o0lL1mDszTdIWAE7XdyDFoIM93yKvIropqCbAFxcXo6ioCHq9Hnq9HkVFReMe5FONSUgxaOH2+MN6j8OZlmmETpuI0yHBuMnZi137Pg3bTmjvtMvlQ8OlHlgtBskAYrpZj7wZU9DS4Y3YU41XBXYrsq0mHK1qFl/78doWnKxrhX2ORXyf2sQEdPb047O/XU236LQavHH4HAAgSZeAqWnhUx5r6zvQ5/XDNjW8juhmoJoAX1hYKC9SLIuVdLMe37//NgAQA020Lrd54A8M4t41s0acXdJwqScs6MsJB5rWLo+8Ku5FOvNwtnuh0yZiWua1C85CD4h93gB6PcOPGwhnWFnpvGiNbk6qCfATIS/bjL071mDvjjX4ZelKuD1+lL5wbNS95iZnL559uRqtnV7cu2YW9u5Yg99sL4pq7rbaZKUbkWLQ4ZnvLRP37d4da3DvmlnypkQ0SqoJ8FVVVfIixbLr0dDskuSRQwdcR6vL5cNPfl0l5pwxNAvmZgvyrV0e9Hn9Yv499N9juxzioDMRjZ5qAnx5eTkcDgd8Ph98Ph8cDgfKy8vlzSZcji0VVsvwOeDjtS14/VAdACjmkkcSz6kIIR0VKQ+ulIqJlcmcuiKKBdUEeAwF+dLSUpSWlt6Q4C4Es9uHZm3Ip0IKNqzODZshsnBOBgCgvdsrKY9GpMHXeCAcfEIHTENV1lxGd68vqitPR8ueb0GKQQdn++j3KZEaqCrA32hNzl68eaQe2VYT9u5Yg2e+twxHq5pRVeuUtBOmCIbmnO1zLPjFayfHnJI4c74TOm3ihEwJ3LJpvvi687LNyMow4JelK7F3x5qwA1eXy4eX3/4cACR5dmFwWUhVtXR4w/Lw20uWSrY1WrfnW9Da6UVlzWV5FdFNgRc6KZBf6DRZRHNhz80i2gu/eKETqRl78AqCwcl5zPuwuhk6baLihVA3k3SzHvcUzUJ3r2/Y3vtk/ZyJosUAryAQGP3VqfHgeG0LDh+7iLxsc1iq5Gbyg/sXIsWgxctvfz7sNQST9XMmihYDvAKvd/IOyr33USOqap3ImzEl7LYHN4MCuxW2qUa8eaR+xDTVZP6ciaLBHHwEJpOJy/apmMfjgdvtlhcTqQp78BG43W64XC74/X7malUiGAzC7/fD5XIxuNNNgT14IiKVYg+eiEilGOCJiFSKAZ6ISKUY4ImIVIqDrMNITk6GwWCAVquFRqORV08KwWAQgUAAXq8X/f398moiUjH24CMwmUwwm83Q6XSTNrgDgEajgU6ng9lshslkklcTkYoxwCtITk5W5UVORqMRycnJ8mIiUikGeAUGg/LiFGqg5vdGRFIM8Aq0Wq28KC5sWJ2Lsm2rwhbGiFSuJF7fGxHFHgO8gnjMuRfYrVi/aiZqz3eE3USrsuYy+rwBfP/+20a8wVg8vjciGh+cRaNAvuBHulmPpzYvRlaGNL3R5/VPyOIawtJ/LR3eiAt9R9NGwEUuiG4OiRaL5WfywptdSkqK5G+DXouVi6ahpcOLp8sqcdDRiGOnLmP5bVd71VeuAPVN3ZLHxNL9a2fDmmHE7/50Fj3uAXk1AKDHPYDExATcscg24uvp6+uTFxGRCjHAK4gU4Af8V3Ds1NUVgvp9gzjf1INlCzJhsxhxqq4N/b5BYGjpvO/+/TzcUzQL9xTNQlaGAafq2sXtbdk0H/ffNQetnV78eMtS/MNdsxXbYahnfu+aWag934H/+OSSpE6uvduLRXOn4habSfJ65BjgiW4OqsrBFxcXo6ysDGVlZSguLpZXx1yvZwB93murAuXYUlG2bRVMRh2eLqvE1p0VeGX/WSyZlxW2gHRWhgGPf+t2HK1qxtadFXi34gIK7TZxMWqBPd8CnTYRZ853SsqVdLl8aLjUg7RUPebOTJNXE9FNRjUBvri4GEVFRdDr9dDr9SgqKhr3IJ9qTEKKQQu3x48ulw9r78gGAMlSccdrW3CyrhXZVhMK7FbJ49+tuCAuCF1ZcxmtnV7cnm+RtLk934LuXh/OXYyccgklHAimpnE6JNHNTjUBvrCwUF6kWBYr6WY9vn//bQCANw6fQ7pZj7wZU9DnDaDXI82TKwXdPq8ftfUd4t9dLh/cHj9MRp04EybdrIfJqBMPING43OaBPzAI21QGeKKbnWoC/ETIyzZj74412LtjDX5ZuhJujx+lLxyTzKIZLhgz6BLRRFJNgK+qqpIXKZZdj4ZmF7burBD/jTQdUc7ZzkWeiWjiqCbAl5eXw+FwwOfzwefzweFwoLy8XN5s3AgDnFaLIeyK0oVzMuAPDEpSMnI5tlRYLQY0XOoRzwCU0jYjmZZphE6byIMJEaknwGMoyJeWlqK0tHRCg7vg6MfNAICH1s8VywrsViyZl6V4BWoo4THCNgSn6ztGNStm4ZwMYGjKJBHd3FQV4G+0Jmcvdv++BlaLQczVP7JpAQ4fu4hX938haZti0OGZ7y0T25mMOjz7cnXYQaC2vgP+wKAYuIcjDPQ2t7hxvLZFXk1ENxneqkCB/FYFsbZl03zY51iivs3Blk3zsWReFl4/VDds4N6wOhfrV80csR1vVUB0c2APXkEwGF/HvKMfN8MfGMQ9RbMi5uJzbKlYW5g9Yu893t4bEY0fBngFgcC1q1PjQZOzF28eqUdaqh4/uH+hvFqck9/nDeC3b5+RV0vE23sjovHDAK/A642/AcrjtS04fOyi4iydlYumIcWglVxBG0k8vjciGh/MwUdgMplUt2yfx+OB2+2WFxORSrEHH4Hb7YbL5YLf75/UeetgMAi/3w+Xy8XgTnSTYQ+eiEil2IMnIlIpBngiIpVigCciUikGeCIileIg6zCSk5NhMBig1Wqh0Wjk1aoRDAYRCATg9XrR398vryaiSYo9+AhMJhPMZjN0Op2qgzsAaDQa6HQ6mM1mmEwmeTURTVIM8AqSk5NVd5FTtIxGI5KTk+XFRDQJMcArMBhu7qX1bvb3T6QWDPAKtFqtvGjCpZv1+PmPCrG9ZKm8akRbNs3Hz39UKLnzpLC9LZvmS9oqiYf3T0TXjwFewWTOuW9YnYtCuw2VNU7Jjce6XD5U1jhRaLdhw+pcyWPkJvP7J6JrEi0Wy8/khTe7lJQUyd/pZj2e2bocD67Lxz1Fs8R/31iRjbMNXehxD0jax4JBr8XKRdMw4L+CY6cuy6sVFdituP+uOag+24K3/v28vBr1Td3IyjDg60tmoKOnH5da++RNRH19keuIaHJgD34UGppd2LqzAlt3VuDpskr0eQN45nvLRuwRT5Q7l2eju9eHdz5okFeJ3vmgAd29vmEXDyEidWAPXoG8B6/Um+73DeJ8Uw+WLciEzWLEqbo29PsGgaEc+A//u13s6WdlGHCqrl2yTflZwbqVMyW9aqXnzLGl4tlHV+Af7podts0CuxWrl0zHh9WXcLq+QyyX6/cNwqDXYumCTPR5A6hv6pY3AdiDJ1IFVfXgi4uLUVZWhrKyMhQXF8urY67XM4A+r3SFpO0lS2GfY8Fzv/sEW3dW4JX9Z7FkXpZkcDPHloqffn853B6/eEZwsq4Vm++ehwK7VbI9QY4tFU98ZxEA4LnffRK2iPfCORnwBwZRO0xwF9TWd6DP68ft+RZ5FRGpiGoCfHFxMYqKiqDX66HX61FUVDTuQT7VmIQUgxZujx9dLh8K7FZkW004WtUsLqZ9vLYFJ+taYZ9jEVdiWntHNgDgjcPnxG0JqZM7l1+tCyUsyQdAcaHudLMeeTOmoKXDG1anpMnZi5YOL0xGHdM0RCqmmgBfWFgoL1Isi5XQoCsE6ki9aGe7FzptIqZlGiMG4y6XD26PPyzo6nQJeGrzYqQYtIrBHSEHmtYuj7wqotYuD1IMWqQak+RVRKQSqgnwEyEv24y9O9Zg7441+GXpSrg9fpS+cEwMulnpRqQYdHjme8vEdnt3rMG9a2aJ2xCCcei2hH952eaQZ7vqFqsJWRkG9HkD6PXEfrYOEamXam42JqRoQjkcDpSXl0vKopGVlSX5O92sx1ObF8Pt8WPXvk8ldaG2bJoP+xxLxJ42RrGt0HYfVjdj893z0N3rw69ePxW2sLaQn6893xGWm49kpNfa2toqLyKiSUY1Pfjy8nI4HA74fD74fL4xB/frEZqKiSRSKmY4x2tbcPjYRWRlGPCD+xfKq8XB3qz0yM8rl5Vu5FkBkcqpJsBjKMiXlpaitLR0woM7AFTWXEZ3rw8PrssXB1SVfFjdjLRUvWKwjuS9jxpRVetEXrY57HYDXS4fGi71wGoxDPu8ghxbKqwWgzg4TETqxHnwCqKZB6+k3zeID080Y/G8TNy75toVr/cUzcLC2RbxsZda+3DmfCfWFmbjH+6aLWl35crVK06VnvNUXTsWzrbAnm+RbA8AknSJWDIvC66+gYhz2wWrFk/HvNx0vPsfDRGvZuU8eKLJTzU5+FiS5+Ani+0lS2G1GCLm1TGKMQDm4IkmP1WlaGIlGJycx7wPq5uh0ybiofVz5VWi+76Rh7RUPT6sbpZXiSbr+yciKQZ4BYGA9OrUyUIYjFXK0yPkTpOHj13E8doWebVosr5/IpJigFfg9XrlRZOGOBg7Y0rY/eBXLrKhqtaJ9z5qlDxGbjK/fyK6hjn4CEwm0025bJ/H44Hb7ZYXE9EkxB58BG63Gy6XC36/X/U56WAwCL/fD5fLxeBOpCLswRMRqRR78EREKsUAT0SkUgzwREQqxQBPRKRSHGQdRnJyMgwGA7RaLTQajbyaSPWCwSACgQC8Xi/6+/vl1RTn2IOPwGQywWw2Q6fTMbjTTUuj0UCn08FsNsNkMsmrKc4xwCtITk6+KS9yIhqO0WhEcnKyvJjiGAO8AoPBIC8iIv42Jh3m4BVkZmYyLTNkw+pcrC3MHvYWxDSxhFs+Z2VcDbYD/it4/VDdsDeQG06B3YpvfXMu/u3/OzfiNoLBINra2uTFFKfYg1fA4H5Vgd2K9atmovZ8x7gH9+0lS/HzHxVGvYzhzazL5cNPfl2FrTsr8G7FBXm1RI4tFWXbVineXVRwvLYFznbPiCuRgb+NSYc9eAXyBT+2bJqPQrtNUhaqz+uPeQ+3wG7F5rvnIUknPQY3NLuGXagjVoSFvFs6vBPyfNtLlsJk1CkuKh4Nea9WyUTtu4m0YXUu1q+aGbEHH+2C7ML+AzDiZ8DFYCYPLtmnQL5k36m6dhx0NOKgoxE1f+vAsgWZOFnXhmdfrsZBRyOOVDahxx3bxauzrSYsmjsVB//aiBd//xkOOhrR2unF6iXT8V/vuAVnG7pi/pyh7l87G9YMI373p7Pj+jyC1YunI0mXiMoaJ/p9g/LqEQnLJQqf05UrQF72FLz25y+w549ncNDROOxyi5PV3JlpyM9JQ825dsXlF6eY9LhjkQ2tnV6cqmuXV4v6fYPo8/pRYLchzZw0bFsu5zh5sAevQN6DDzVcjyi0ztnuxb1rZol171ZcwHsfNWLD6lzcu2YWqmqdYY8PXXJvWqYRm++eh8PHLkru3x7p8dtLliIv2yz+rVSPoVWfQs8MhNcVarj3KBDapBh0QIQ8sFKvXDgzOXzsItq7vYpnKYLWTu+IvclIRurZRmPLpvmwz7Hglf1f4MF1+eLZgdLrEj4XgdLZQiz2mfyzivQ+RzrrlH8/BNEs+8ge/OSh/MuapIqLi1FWVoaysjIUFxfLqydMod2GtYXZeO53n2DrzgpU1TqxftVMFNitqKy5jNZOb9iCHDm2VFgtBrR0eCP+sACgvduLAf8V8W8hx2oy6vB0WSW27qzAK/vPYsm8LDGoC/Kyzdh89zy8fqgu7HWFsudboNMm4sz5Tkm5YMPqXDzzvWWoPd+BrTsrsHVnBU7WteKRTQuwYXWuvHlEx2tb8NguB7burEBDswutnV7xPWzdWYGf/LpqTME9llIMOjz+rdvRcKkHW3dW4LnffYIUgxY/uH+h2GbLpvlYv2omXtl/VmxjtRgk+z805SW8v1+8dhJ3Ls8el3GHV/d/Ib6WPq8fVbVO8Xm37qxQDO4AcLq+AykGHez5FnkVTUKqCfDFxcUoKiqCXq+HXq9HUVHRDQvyrZ1ePPtytRiohUA5Nc2ALpcPDZd6kJaqx9yZaeJjhKA63FqpGNpGki4Bzvarqy6tvSMbAPDy25+LwfB4bQtO1rUi22qSBG95j/Hox83wBwaxcE6G2AYAbs+3oLvXh3MXuyXlCFkZqqHZJQkS73zQgNZOL1Yuso1LwLqR3q24IL7XJmcvWjq8MBl1SDfrkWNLhX2OBSfrWsX92uTsxdGqZsn+n5ZphE6biNP1HeJ2m5y92LXv0xt+EAtVW9+BPq8ftqmRxzJo8lBNgC8sLJQXKZZNBLfHL/nRCj1V4fRaCPihgXW4oCoQZrU0NLvw3keNSDfrkTdjCvq8AfR6pHny0IOKQL79Xs8A+rwBZKVfu6gr3ayHyagLew+CuTPTkJaqR2uXR1IuHLhSDFqkGpMkdZPZgP8K2rulSxju2vepeHYR6WxHeIyw/y+3eeAPDOLeNbNGdZYz0ZS+EzR5qSbATybHa1vQ3OIW0zRCeqayxhkWVO9dMwt7d6zB3h1r8MimBTh87GJYbjdSMAYwbj0x4QxCTqdNxLTMmyc42KZePaN6ZNMC8XMSPqvQsYUmZy+efbkarZ1Xx2b27liD32wvCkuPEcWSagJ8VVWVvEixLF6cru8Q0zRCvrM25PRd8G7FBUnuVD7INpJIgXi8+AODuNwm7d2rmbP96piIkH+X/wv9vLpC5q+/sv8sAGDz3fMY5GncqCbAl5eXw+FwwOfzwefzweFwoLy8XN4sblTWXEZ3rw8L52Tg9nzLiIOrSoS0iNViCLtAZeGcDPgDg4oHDYGQbgnNC3e5fHB7/GKOWe7cxW509/pwu2wQTkgXjfQ+Fs7JUJw109rlmZTpHXkqJlrHa1vw+qE6IIrHRtpn0RhtyiXVmIQUgzYsBUeT09i+NXGqvLwcpaWlKC0tjevgjpDgXGi3IdtqGnFwNZKjH1993EPr54plBXYrlszLGvYK1HSzHvcUzUJ3rw+VNdL54aFnF3JdLh8qa5zIyzZLcsn3fSMPaal6yfto7fJItjPc1D1nuxcpBp04aDxZCOk2pdlIoTaszg27mlQYgwnN8Y9mn0VDOGDLB9wjsedbkGLQTfiZH40PzoNXcL3z4KO9+lOY39zd6wubVz3c3Gc5+fxqKMxvl8+TR4S52hjhPQrk874jXc0b+rytnV68eaQej2yaj6NVzWHvSx7MlOabRyvS/PDR2LJpPpbMy4pqG/LXDoXXL28z1n0W6Spnob18nyld5TvcPHj5PHw5zoOfPBjgFQwX4GNJ+KGerGtV/LHFUjQ/3FCjCW6kDtF2KhjgJ4/wLgAhGJyYY56QJxfSLPFEmCN/T9EsxVw8qctwKbtQE/XboNhggFcQCATkRTG3YXUuCu02HK1qDjtFjwdNzl68eaQeaal6yVWbpE4/uH8hUgxayQVzSibit0GxwwCvwOsdvwGmLZvmY++ONbh3zaywPHm8OV7bgsPHLirO0iH1KLBbYZtqxJtH6kfsbIznb4Nijzn4CEwmE5ftIwrh8XjgdrvlxRTH2IOPwO12w+Vywe/3M+9IN61gMAi/3w+Xy8XgPgmxB09EpFLswRMRqRQDPBGRSjHAExGpFAM8EZFKcZB1GMnJyTAYDNBqtdBoNPJqIhoSDAYRCATg9XrR398vr6YbhD34CEwmE8xmM3Q6HYM70Qg0Gg10Oh3MZjNMJpO8mm4QBngFycnJvMiJaIyMRiOSk5PlxXQDMMArMBiGX4CBiIbH31B8YA5eQWZm5k2ZlhHuG+72+BXvEx+J8LiGSz3jfttjip78vvFK94ofjQ2rc7G2MFvxHvZywWAQbW1t8mKaYOzBK7gZg/v1EO5EON63Pc6xpaJs26qwlZFI2fHaFjy2y4GtOyvQ0OySV0ts2TQfZdtWDXtTucqay+jzBvD9+28b8RbS/A3FB/bgFcgX/JCvxCMXaWWe6yHvfQkircIUC2PpwU/kwiDRrDQ1EqXVr+QirXY0mY204MuWTfNhn2MZ8Xs8mlXLuDDIjZdosVh+Ji+82aWkpEj+PlXXjoOORhx0NKLmbx1YtiATJ+va8OzL1TjoaMSRyib0uAckj7le2VYTFs2dioN/bcSLv/8MBx2NaO30YvWS6fivd9yCsw1dMX9Og16LlYumYcB/BcdORV70QZBjS8W9a2ah5tzV/TPeppj0uGORDa2dXpyqa5dXR6XHPYAjlU3i55mVYUC6WY9fvHYKf3jvbzjoaBzztuPZ6sXTkaRLRGWNE/2+QXk1lszPhDXDiI9Ptwz7vepxDyAxMQF3LLLhyhWgvqlb3kTU19cnL6IJxh68AnkPPtRwvcjQOme7V7JmqXDvd2EtU6Ve4vaSpbBaDNj9+xpMyzQqLp8W6fHyswx5PRR6r/IzD6UefOhj5NuMptcnPxORP2ekZeJCe5z3fSNv2DMo+esajWjew3BC99mH1c2S9yp/XfK1UQf8VxTPfGKxz+S9dKU6+fdBTv68AuF9AFB8LgF78DeeqnLwxcXFKCsrQ1lZGYqLi+XVE6bQbsPawmw897tPsHVnBapqnVi/aiYK7FZU1lxGa6cXeTOmSPKYObZUWC0GtHR4w35Qodq7vRjwX5GUbS9ZCvsci/h8r+w/iyXzsiS56gK7Ff/48BLUnu/A1p0V2LqzAi0dXjzxnUUR865CAACA5373SViwypsxZdjXu2XTfDyyaQEOH7soec5/fHgJCuxWefOIXt3/BbburMBzv/sEfV4/qmqd4va27qwYc3CPpbxsMzbfPQ+vH6rD1p0VeLfiAgrtNmxYnQsM7cuffn853B6/+LpP1rVi893zJPsidJ1eod2bR+px/12zQ54tNpqcvSh94Zj4He3z+sXv0NadFSh94ZjiZ9vl8qHhUg/SUvWYOzNNXk1xRDUBvri4GEVFRdDr9dDr9SgqKrphQb6104tnX64WfxxnzncCAKamGSL+OOz5Fui0ifiweviByqlpBiTpEuBsv7qyToHdimyrSbL03/HaFpysa4V9jkUM3ncuz0Z3rw/vfNAgbuuNw+cAAGvvyBbLBOlmPb5//20AoNiLmzszDWmpepyu75CUC3JsqbDPsaCq1inpZb5x+Bz8gUHcuTz8OSezPq8fv3jtpNgbr63vQJ/XD9vUq711YR8L+xwA3vmgAd29Psm+mJp2tb3wncHQ57n7D5+Jf8eD0O80xS/VBPjCwkJ5kWLZRHB7/JLTVmE2gxDohB/HwjkZYpvb8y3o7vXh3MXIOc0CuxXrV81EQ7NL3JawcHetLNA6273QaRMxLdMonh00XOqRvK5ezwD6vAFkpUsv6tLpEvDU5sVIMWgVgztCftjt3cpLuNnzLUgx6MQDkaDJ2YuWDi9MRt2IMzEmkz5vAL2ea7lroXf86v4vIp7tdLl8cHv8kn0h7E95zz7eXG7zwB8YFA9gFJ9UE+Ank+O1LWhucYtpGiEAV9Y4w/KZ966Zhb071mDvjjViuiN09kJWuhEpBh2e+d4ysZ2w5qtgWqYROm0iCu02SZtflq4U88GhbrGakJVhCAtaozXgvxLxAJBi0CLVmCQvVqVUYxJSDFrkZZsl+3/vjjXIyzZL2h6vbcEvXjsJf2AQj2xagL071ow4fZEoEtUE+KqqKnmRYlm8OF3fIaZp7PkWYOi0Xu7diguSfLN8ke7WLk9Y7lT499guB47Xtoi9LXnuWvgnn+7W0OzCK/vPIi316mDaePS0r/fgMZkIZ0oNza6wfb91ZwV+8usqyYE9NDf+bsUFpBh0w46VEEWimgBfXl4Oh8MBn88Hn88Hh8OB8vJyebO4UVlzGd29Piyck4Hb8y1hp+/RCk3FRBIpFTOc47UtOHzsIrIyDPjB/Qvl1WLPPFIOtra+A/7AoCQNhZDBZHm6KJTQRm4s7yMeKKViovXeR414t+LCiJ9xpH0WrWi+R6GEs0J5Co7ii2oCPIaCfGlpKUpLS+M6uCNkJkKh3YZsq2nEwdVIhAPFg+vyI/bwulw+VNY4kZdtHtVVoO991IiqWuXHnbvYje5eH24fOvuQa3L2ovZ8B5bMy5Lkkh9aPxcAxKtehbMLYTvDTd0TAmW21RTX+WklH1Y3Iy1Vr3iwDLVl03xx5o3g9nwL/IFBXG7zAKPcZ9ESDtjRDn4LB+5IKTiKD7zQSYH8QqdQw11sI9T1eQNRXSiUpEvEwjlXB1cP/rVRcgGKcKFTfVPPsBeT9PsG8eGJZiyel4l718zCPUXX/i2cbRFfR31TN1o7vVi3ciY23Zkntlm3ciY6evpxqbVP8UKnU3XtWDjbAnu+RbK9ft8gZs1IRV62OeJFV6fq2jEt0yh5Tf7AFeza9ylaOq4Gqx73ALp6fVi9ZDo23ZmHoqXTcfhYE7rdPqSbk8MuzPn8y04smZ+J1Uumi9vMyjCEfRbRivYCn0iEfQYg7LWGutTahzPnO7G2MBv/cNdsyT4JvWDoVF077r9rNr779/Oue59t2TQfP/zvdtxTNAvpZj1SDDqsLbxFcZ9dau2DRqPBHYts4vN+Y0W24mebbtZjw+pctHf3o/zf6yV1oXih043HC50UDHehUyyFznmOh7ncoyX0HKO5bJ3UY8PqXKxfNVPxIq1QvNDpxlNViiZWgsGJOeYJUxzH+yZd40VIw+Rlm8PSCqROObZUrC3MRnOLe9jgPlG/IRoeA7yCQCAgL4q5DatzUWi3SS5Qmoxe3f8FGppd4pW6pF7CxW993gB++/YZebXERPyGaGQM8Aq83vEbONqyab44T124P81k99u3z4gzgki9Vi6ahhSDFi+//XnEGVCC8fwNUfSYg4/AZDJx2T6iMfB4PHC73fJiugHYg4/A7XbD5XLB7/czn0g0gmAwCL/fD5fLxeAeR9iDJyJSKfbgiYhUigGeiEilGOCJiFSKAZ6ISKU4yDqM5ORkGAwGaLVaaDQaeTVRTASDQQQCAXi9XvT398uricaMPfgITCYTzGYzdDodgzuNK41GA51OB7PZDJPJJK8mGjMGeAXJycm8yIluCKPRiOTkZHkx0ZgwwCswGMa+cALR9eL3j2KF94NXkJqaqtq0zIbVuXj6fyxGod2GU3VtEe9fPh5ybKl49tEVSExMGPYe97GwvWQpvvv388Lue34jbS9ZitWLp4+4VkBCQgI8nqv3fie6HuzBK4in4L5l03xVLLoceifCyprhA9xE2V6yFD//UeGol9Ebqw+rm5FtNYWtjiUXT98/mtw4i0bBcAt+bC9Zirxss/h3a6cXv3r91Ih31xurLZvmwz7Hgt2/r5nUtxXeXrIUVotB8j6iWWquqtY5bouhbC9ZCpNRN66fn9yG1blR3UmUi2VQLDBFo0BpyT4hvWAy6vCL107hD+/9DQcdjejz+lFgt6G2vkP+kJi43iXl4kGB3YrVS6bj3yv/E5+cvRa4etwDOFLZhIOORhx0NCIrw4B0s16yf8czvbJ68XQk6RKHXWov1uqburFwtgW3z7UoLocn4HJ3FAvswStQ6sEr9UAjkffy5b3QLZvmI2/GFLx5pB6PbJov9mCFdiP1bPu8fsnrSDfr8dTmxcjKuDY4J39OoecoaGh2hS2zJzzv0apm2KYaUGi3AQrPF9pWeI0D/isRl3CLtqcci7MV+b6X95SFZRKTdMrZSfkZmfx9yvfF9pKlVx/X5UGh3YaGZhc+rG4Wn0P+/IhyqUb24CkWVNWDLy4uxiOPPIJ169YhLS0NZ84Mv+pMJPIevLBMWUuHN+zHGkro5Ws0Gjz7cjX+z1/OiwtdL5o7VRxcWzI/E7fmpmPJvEy8cfgc9vzxDK5cAe4quAVXrgCfnG0Ve7ZKvdojlU2Snt8P/x873j/+n9jzxzM46GgUtxU6wFjf1I2DjkYcO3UZi+ZOlSysLRAWDb8934IB/xU8XVaJY6cuY/ltVixbkCUOyoauxfp0WSUOOhpx5nwnNv6XWfj8y05Jb1jYd3+72IXKGqfk+eRicbZy7NRlHHQ0orXTi4VzLGGLll9q7cPhYxdx0NGIhbMt8AeuiJ/VQUcjPjzRLL7+ArsVjz1gR825djz7cjUOOhqxeF4m1hZeW4x69eLpsE01ot83iP/7mRNLF2QhPycNB/6jAVaLEelmfdh+9vQHsGR+JtLNyREHutmDp1hQ7sZMQsXFxSgqKoJer4der0dRURGKi4vlzcbEnm9BikGH0yOkYdbekQ0AkhVvjte24GRdK7KtprAl7Q4fuyj2eGvrO9Dn9cM2dfRT5Hb/4TNJz7my5jJaO73ImzFlTAOIrZ1ecUm2LpcPDZd6kGLQItWYBACYlmmETpso2R9Nzl7s2vdpWA/dnm+BTpuIM+c7JeWTwZ3Ls9Hd68M7HzSIZW8cPgeEfNYAoE1MwP8dGjhO0iWgrrETn/3t6oHVZNSFfQZK+5RoPKgmwBcWFsqLFMvGS7pZj7wZU9DnDaDXI+19CsFtatq14N3n9Y9b3r7L5YPb45cXR63hUk9YoA51uc0Df2AQ966ZNeJi27apBvgDg7jcNrmm/eXYUmG1GML2Ra9nAH3eALLSr10I193rw7mL184SnO0jL1fnbPdCp03EtExeUEfjRzUBPl64Pf6IwXEsvfNoFNit+M32IuzdsUb8F5qHjrUmZy+efbkarZ1e3LtmFvbuWIPfbC8KO0OZzISzlEK7TbJff1m6UjLWQRTPVBPgq6qq5EWKZWPR3u3FgP8Kbs+3yKtGJZqe3WgJA3bNLW5s3Vkh/mtodsmbxlSXy4ef/LoKW3dW4JX9ZwEAm++ep5ogL5ylVNU6JftV+CcfoCaKR6oJ8OXl5XA4HPD5fPD5fHA4HCgvL5c3G5NzF7vR3euD1WKIeMGRkFdVarNwTgb8gcExpWRGOpVfOCcDGLqI5kY5XtuC1w/VAbI0FKJ4/TdSa5cnYh5cKRUTS5M1dUWTi2oCPIaCfGlpKUpLS2MW3DEUvP/suACdNhFPfGeRJIAX2K14aP2tAICjH18Nsg+tnyupXzIvC7XnO8Y09a+9+2qv/87l1wb1QjnbvUjSJYiBPt2sx89/VDiuKZoNq3PDrsYUnl94vYLa+g74A4NifTxxtnuRYtBJBkwFXS4fKmucyMs2h73X6zXceA1RLKlqmmSsyKdJYmh63cennVh+mxXrV83EPUWzcE/RLGRbTfjXg3Xo9w2ixz2Asw1dWFuYjX+4azbuKZqFJfMzcfCvjXjr38+L21KaDihMUWzt9Eou7rnU2geNRoM7FtnE5/zGimvT9OqbupGVcXXO+j1Fs7C28BYcrWpGki5RchGPcG+WtYW3IMVwdWaHsL0rV65Oo4z0GuSvt76pG0vmZ+KH/90ubiPdrMev/vUznG2QzpbpcQ9g8bxMWC3GiFMCBfLnGS1hmuo/3DUbS+ZnIjFRg3mz0sP2mUC+7+4pmiW5R099U7c4zXXTnXlim3UrZ6Kjpx+XWvskF0vdYkvFvFnpqGvsxn+2uLFy0TQACLuQatHcqSiw2/Bh9aWIM7M4TZJigRc6KVC60InGLpoLe24m0Vz4xQudKBZUlaKJlWCQx7xYOl7bguYWN5bMy1LNIOxYbVidi7xsMyprnBGDO79/FCsM8AoCgYC8iK7Tb98+g+5eHx5clx82CH2zKLBfTe9V1TqHvSKa3z+KFQZ4BV5v7Kcz3uy6XD68/PbnwNDVrTejO5dno7nFPWKait8/ihXm4CMwmUxcto8mnMfjgdvtlhcTjQl78BG43W64XC74/X7mRGlcBYNB+P1+uFwuBneKKfbgiYhUij14IiKVYoAnIlIpBngiIpVigCciUikOsg4jOTkZBoMBWq0WGo1GXn3TCQaDCAQC8Hq96O/vl1cTUZxhDz4Ck8kEs9kMnU7H4D5Eo9FAp9PBbDbDZDLJq4kozjDAK0hOTuZFTiMwGo1ITk6WFxNRHGGAV2AwcEm2aHA/EcU33g9eQWpq6pjSMulmPZ7ZuhwPrssPu294vBHunZ6YmID6pmsLRhfYrXj6fyxBl8s34utOSEiAx8MViYjiFXvwCsYS3CFbp/Tdigvy6riRbtbj+/ffhj5vAJU1lyV1x2tb4Gz3RHXXx7HuJyKaGAzwo7S9ZCn27lgj/vv5jwqRbtbLm8W1H9y/ECkGLV5++3PFe5L/9u0z6PMG8P37b5t0742IrmGAj1KOLRVl21bBajHgud99gq07K7B1ZwX+7LiA9aty5c3jVoHdimyrCUermiOuESusQZuWqsd938iTVxPRJMF58AqUluzbXrIUVosBu39fEzEwhtqwOhfrV83E64fqcLy2RV6NdLMeT21ejKyMqwOVA/4rim23lyyVLKDd0OzCrn2fin/n2FLxxHcWofZ8B5ztXty7ZpZY927FhbCFJaJZLk4QzXvm0nJE8UtVPfji4mKUlZWhrKwMxcXF8uoxy7GlwmoxoKXDGzHQjUaOLRU//f5yuD1+8UzgZF0rNt89T7Kk3ZZN83G6vkNs88r+s8i2mrC9ZKlkewBQaLdhbWG2eHZRVevE+lUzJdsT3kfDpZ4RgzsAnK7vQIpBd9Mu0EE02akmwBcXF6OoqAh6vR56vR5FRUUxC/L2fAtSDDqcru+QV43J2juyAQBvHD4nlr3zQQO6e324c/nVOgB4df8Xkh64sLap1WIIGwBt7fTi2ZerxQPQmfOdAICpademMtrzLdBpE8W6kdTWd6DP64dtKqdDEk1GqgnwhYWF8iLFshst3axH3owpYWcDXS4f3B4/TEbdsAObrV3K0xLdHr+kV368tgWP7XJIDhC2qQb4A4O43Ka8DblezwD6vAFkpfOiL6LJSDUBfrJINSYhxaBFXrZZMhtn7441klw7QgZ2Q9sU2m2SNkREkagmwFdVVcmLFMvGor3biwH/Fdweg1y00CtuaHaJufXQfz/5dRW6XD5x8LTPG8DTZZVifVWtU75JIiJFqgnw5eXlcDgc8Pl88Pl8cDgcKC8vlzcbk3MXu9Hd61PMfY9WtKkYIe9fWeOMakA0Gs52L3TaREzLjC7lIpxtREoLEVF8U02Ax1CQLy0tRWlpacyCO0Lmheu0iXjiO4skQb7AbsVD62+VtB/Jh9XNSEvV4wf3L5RXiZTOGraXLL2uFE1tfQf8gUEsnJMhr1IkHGSc7V55FRFNApwHr0BpHjwU5q5jaPaKMKe8wG7F5rvnIUkXftwMbYeQ+espBp2kXejc9Q2rcyXz2oX0jH2ORZybLmynpcMrmR8fyWjnwY/UlvPgieIXA7yCSAFeDYSD0Mm6Vry6/wt5tUhod/jYxbCLpUIxwBPFr/CuJiEYVO8xT5hLv2ReluQiqFDpZj3uKZqF7l5f2M3IQql5PxGpAQO8gkAgIC9Sld++fQbdvb6Id4wc6WZkArXvJ6LJjgFegder7kHFLpcPL7/9OTA0kBqqwG6FbaoRbx6pH/G2DGrfT0STHXPwEZhMJi7bNwyPxwO32y0vJqI4wh58BG63Gy6XC36/n7nmIcFgEH6/Hy6Xi8GdaBJgD56ISKXYgyciUikGeCIilWKAJyJSKQZ4IiKV4iDrMJKTk2EwGKDVaqHRaOTVk0IwGEQgEIDX60V/f7+8mohUjD34CEwmE8xmM3Q63aQN7gCg0Wig0+lgNpthMpnk1USkYgzwCpKTk1V5kZPRaERycrK8mIhUigFegcGg3kWm1fzeiEiKAV6BVquVF6mGmt8bEUkxwCuYjDn37SVL8fMfFQ67DCAm6XsjorFhgB+l7SVLsXfHGvFfNEGViOhGYICPUo4tFWXbVsFqMeC5332CrTsrsHVnBf7suID1q3LlzYmIbjjOg1egtGTf9pKlsFoM4lqow9leshR52Wbx76pap2R5vC2b5kvWVUXIGq215zvw6v4vxL+PVjXDNtUgLrbd5/WLjxtuDVgorAMrlnOZPaKbQqLFYvmZvHCyKi4uxiOPPIJ169YhLS0NZ86ckTeJSkpKiuTvHFsq1hZmo6XDO+z6pDm2VDz76ApoNBo8+3I1/s9fzqO104t1K2di0dypOHbq6vJ3S+ZnwpphxMenW9DjHgAATDHpccciG1o7vThV1y7+fXu+BQP+K3i6rBLHTl3G8tusWLYgC6fq2nD+P3tw+NhFHHQ0YuFsC/yBK+LzHnQ04sMTzej3DcpeJdDX1ycvIiIVUu76TULFxcUoKiqCXq+HXq9HUVERiouL5c3GxJ5vQYpBh9P1HfIqibV3ZAOAZKm747UtOFnXimyrKeIaqMNp7fTit29fPVB1uXxouNSDFIMWqcYkeVMiIgnVBPjCwkJ5kWLZeEk365E3Ywr6vAH0eq72ygVnzncCAKamjX4OesOlnrAUCxFRNFQT4OOF2+OPGJBtU0cf4ImIxko1Ab6qqkpepFg2Fu3dXgz4r+B22QLVo+Vs5yLVRDRxVBPgy8vL4XA44PP54PP54HA4UF5eLm82JucudqO71werxYAcW6q8GgjJjyu1WTgnA/7AIGqHyeELef6xau3yMDdPRBKqCfAYCvKlpaUoLS2NWXDHUPD+s+MCdNpEPPGdRZIAXmC34qH1twIAjn7cDAB4aP1cSf2SeVmoPd8hTol0tnuRYtDBPnRGsGF1Lu5dM0t8zFgI2xQGeomIOA9egdI8eAwNpD61eTGyMq7l0uVzzYX566G98XcrLoRNr9yyab5kbvsr+7/Ag+vy0XCpRzIPXpgXH/o4+Rz60Dphm1B4bWI558ET3RQY4BVECvBqwQBPdHNQVYomVoJB9R7z1PzeiEiKAV5BIBCQF6mGmt8bEUkxwCvwetU7nVHN742IpBjgFfT398Pj8ciLJz2Px8OFt4luIgzwEbjdbrhcLvj9/kmdtw4Gg/D7/XC5XHC73fJqIlIxzqIhIlIp9uCJiFSKAZ6ISKUY4ImIVIoBnohIpTjIOozk5GQYDAZotVpoNBp59U0nGAwiEAjA6/VyuiXRJMAefAQmkwlmsxk6nY7BfYhGo4FOp4PZbIbJZJJXE1GcYYBXkJycDKPRKC+mEEajEcnJyfJiIoojDPAKDAYurRcN7iei+MYcvILMzMxh0zLyBTr6vH7F+7NPNpHuQR9JMBhEW1ubvJiI4gR78AqiCe5VtU5s3VmBrTsrUPrCsUkf3MdiuP1ERDceA/wo3Z5vQZ/XLy7PR9dn27Zt2LZtm7w4aiUlJdi5cyfS0tKiKie6mTDAj0GfN4Bez4C8mIgorjAHr2C4Jfu2lyyFyahTXOtUsL1kKfKyzeLfVbVOSU57w+pcrF81E68fqsOdy7PFtkq5fHm+v6HZhV37PhX/RoS1YuXPKZCv2xraLjQHD0CyZqz8dQmud/k/off+wgsvyKsiKikpAQDs27cPJSUlyM3Nxe7du9Hd3S1po1ROdDNRVYAvLi5GYWEhAKCqqgrl5eXyJlGRB3h5UJQTgqQQIPu8AfEAUGC3YvPd89Dc4hYDc2jQFgK2EKQBiI/dsmk+lszLwuuH6nC8tkXcfkuHVxLkn/j21/B/ay7jeG2LZPuhwVvYflqqXtweADy0/lac/89uyfZTDDpxwW4AeGrzYrg9/rADC6II8Dk5OXj88ccl004PHDgAANi4cWNIy6v3q3/ppZfQ1NQEDAXp5cuXS+o/+eQTLFu2DO+//z7WrVuHpKQksX5gYAAff/wx7rjjjrDyN954AydOnACGDip5eXli/YEDB3DkyBHxbyK1SLRYLD+TF05GxcXFKCoqglarhVarRW5uLlJTU3HmzBl50xGlpKRI/j5V146DjkYcdDRi4WwL/IErePblavyfv5zHQUcjTtW1AwDuXzsb1gwjfl1ei5aOqwuGXGrtw7RMI27NTUdHTz8utfZh7sw0zJuVjqpaJ/7fN08DAPp9g5g1IxXZVhNOftGOKSY97l0zCzXnrj43APS4B5CYmIClC7LEbQHAx6ed4v8BoL3bi0VzpyLdnIxTdW3o9w3iGytugT3fIgnuAFBb3yE+dopJjzsW2dDdOyAeZITXlZdtxtmGLvS4pampvr5rzysnBPfPP/8czz//PN577z0MDg4CAI4cOYL33nsPCxYsQFdXF3784x/jL3/5C3p6epCWloYf//jHmDFjBn71q1/h3/7t3/Dee+9h0aJFWLBgAd588004HA4cOXIEVqsVSUlJeP755/Huu+/izJkziuWXLl0St6vX6/H888/jT3/6EwYHB7Fx40YMDg7i/Pnz8rdANKmpJgcv9NxHKhsv6WY98mZMUczPnznfCQCYmiadN+5sly6f9+r+L8QZOfZ8C3TaRPGxgvbuq4+RbytUl8sHt8cvKbs934LuXh/OXRw5XdFwqSdi+mk0bLarZz2hB9kjR46M2FsuLCxESkqKpDe/YsUKZGdnIykpCUVFRfKHRKWwsBBTpkzBoUOHxLTNkSNH0NDQgJUrV3JAllRHNQE+Xrg9/ojB0TY1clCWs001IEmXgEc2LcDeHWvEf49sWoAknfRjK7Bb8ZvtRZJ2oWMA6WY9TEbdsK9trHJycvDiiy9iz5494j9h9orT6QQAPPDAA8jJyZE/NCK73Q6n0ykJ7g888ADeeOMNVFdXw2azjWp7ArvdjubmZjFVI+jo6EBKSgrM5mv7jEgNVBPgq6qq5EWKZTeSvMc+HGe7FwP+K3hl/1lxvn3ov/c+upq2Cc3xh9Y3NLvEbQk9epNRh3SzPuRZrl9TUxOefPJJPProo+K/HTt2oLu7G01NTXjuuefQ19eH7du3Y8+ePVi3bp18ExJpaWlITU0V/87JycEDDzyAo0ePhgXm0RC2m5eXJzkY7dmzR5LnJ1IT1QT48vJyOBwO+Hw++Hw+OByOMQ+yjkWXy4eGSz2wWgzIsV0LUACwcE4G/IFB1NZfnZ0SjWhSMRjaNgB8WD38vPzWLg/SUvWYO3Ni0xDd3d3YsWMHHn30UVRXV2Pjxo3iLBgl3d3d6O29OltHyOEfPXp0xLTOSITtNjQ0SA5Gwr8nn3xSPGMgUgvVBHgMBfnS0lKUlpZOaHAXCBc/PbR+rlhWYLdiybws1J7vUJxmGMnx2hY0t7ixftVMFNit8mqRs92LJF2CGOjTzXr8/EeFkhQNhl6bPzCIB9flSw5AD62/ddjtx9K+ffvQ0NAAi8Uir5Lo6OhAdna2OEArBPe0tDTk5uZK0jej0dHRMeb0DtFkpKoAf6M1OXux+/c1sFoMkpz54WMXFeekj2TXvk9xsq41LA//8x8ViqmW9z5qRFWtE4V2G/buWINflq5EZY1TkqLB0Gt79uVq9HkDeOZ7y8RtJesTJLNqYmnFihV48MEHxb9zcnJgs9nQ0XHtTEYp6L7//vsIBALo6+vDO++8I5Zv3boVKSkpeOutt8Syr776ClOmTMHcudcOqpHK33//fQDAI488IhlQXbdu3YipI6LJSFXz4GNFPg+eIhtuHvyKFSvw0EMPSeakV1dXY9++feLfofPkhXnwDzzwADo6OmCxWCTz1dva2sIuXEpLS8MTTzyBzMxMyXz3aMqH2y6RGjDAKxjpbpJ01XjcTXLFihVYu3YtfvOb3zDgEl0nBngF6enp0Ol08mKS8fv96OrqkhcTUZxgDl6B1xv9dMabGfcTUXxjgFfQ398Pj+fqrQZImcfj4cLbRHGOAT4Ct9sNl8sFv9+PYJBZLAzl3P1+P1wuF9xut7yaiOIMc/BERCrFHjwRkUoxwBMRqRQDPBGRSjHAExGpFAM8EZFKMcATEakUAzwRkUoxwBMRqRQDPBGRSjHAExGpFAM8EZFKMcATEakUAzwRkUoxwBMRqVRMbxd86623youIiOgGiWmAJyKi+MEUDRGRSjHAExGpFAM8EZFKMcATEakUAzwRkUoxwBMRqRQDPBGRSjHAExGpFAM8EZFKMcATEakUAzwRkUoxwBMRqRQDPBGRSjHAExGpFAM8EZFK/f+FtaN/sb9uwwAAAABJRU5ErkJggg==;" vertex="1" parent="1">
                    <mxGeometry x="-357" y="447" width="371.8" height="403.45" as="geometry"/>
                </mxCell>
                <mxCell id="3" value="1" style="whiteSpace=wrap;html=1;aspect=fixed;fillColor=#fff2cc;strokeColor=#d6b656;" vertex="1" parent="1">
                    <mxGeometry x="66" y="450" width="80" height="80" as="geometry"/>
                </mxCell>
                <mxCell id="4" value="" style="rounded=0;whiteSpace=wrap;html=1;fillColor=#dae8fc;strokeColor=#6c8ebf;" vertex="1" parent="1">
                    <mxGeometry x="173.43" y="450" width="120" height="334" as="geometry"/>
                </mxCell>
                <mxCell id="5" value="" style="edgeStyle=elbowEdgeStyle;elbow=vertical;endArrow=classic;html=1;curved=0;rounded=0;endSize=8;startSize=8;exitX=0.5;exitY=0;exitDx=0;exitDy=0;entryX=0.5;entryY=0;entryDx=0;entryDy=0;" edge="1" parent="1" source="3" target="4">
                    <mxGeometry width="50" height="50" relative="1" as="geometry">
                        <mxPoint x="377" y="463" as="sourcePoint"/>
                        <mxPoint x="427" y="413" as="targetPoint"/>
                        <Array as="points">
                            <mxPoint x="167" y="416"/>
                        </Array>
                    </mxGeometry>
                </mxCell>
                <mxCell id="6" value="&lt;font style=&quot;font-size: 16px;&quot;&gt;&lt;b&gt;Push()&lt;/b&gt;&lt;/font&gt;" style="edgeLabel;html=1;align=center;verticalAlign=middle;resizable=0;points=[];" vertex="1" connectable="0" parent="5">
                    <mxGeometry x="-0.1383" y="2" relative="1" as="geometry">
                        <mxPoint as="offset"/>
                    </mxGeometry>
                </mxCell>
                <mxCell id="7" value="1" style="whiteSpace=wrap;html=1;aspect=fixed;fillColor=#fff2cc;strokeColor=#d6b656;" vertex="1" parent="1">
                    <mxGeometry x="193.43" y="1088" width="80" height="80" as="geometry"/>
                </mxCell>
                <mxCell id="11" value="2" style="whiteSpace=wrap;html=1;aspect=fixed;fillColor=#fff2cc;strokeColor=#d6b656;" vertex="1" parent="1">
                    <mxGeometry x="66" y="841" width="80" height="80" as="geometry"/>
                </mxCell>
                <mxCell id="12" value="" style="edgeStyle=elbowEdgeStyle;elbow=vertical;endArrow=classic;html=1;curved=0;rounded=0;endSize=8;startSize=8;exitX=0.5;exitY=0;exitDx=0;exitDy=0;entryX=0.5;entryY=0;entryDx=0;entryDy=0;" edge="1" parent="1" source="11" target="8">
                    <mxGeometry width="50" height="50" relative="1" as="geometry">
                        <mxPoint x="267" y="828" as="sourcePoint"/>
                        <mxPoint x="123" y="815" as="targetPoint"/>
                        <Array as="points">
                            <mxPoint x="169" y="810"/>
                        </Array>
                    </mxGeometry>
                </mxCell>
                <mxCell id="13" value="&lt;font style=&quot;font-size: 16px;&quot;&gt;&lt;b&gt;Push()&lt;/b&gt;&lt;/font&gt;" style="edgeLabel;html=1;align=center;verticalAlign=middle;resizable=0;points=[];" vertex="1" connectable="0" parent="12">
                    <mxGeometry x="-0.1383" y="2" relative="1" as="geometry">
                        <mxPoint as="offset"/>
                    </mxGeometry>
                </mxCell>
                <mxCell id="14" value="" style="rounded=0;whiteSpace=wrap;html=1;fillColor=#dae8fc;strokeColor=#6c8ebf;" vertex="1" parent="1">
                    <mxGeometry x="478" y="450" width="120" height="334" as="geometry"/>
                </mxCell>
                <mxCell id="15" value="1" style="whiteSpace=wrap;html=1;aspect=fixed;fillColor=#fff2cc;strokeColor=#d6b656;" vertex="1" parent="1">
                    <mxGeometry x="498" y="694" width="80" height="80" as="geometry"/>
                </mxCell>
                <mxCell id="16" value="" style="rounded=0;whiteSpace=wrap;html=1;fillColor=#dae8fc;strokeColor=#6c8ebf;" vertex="1" parent="1">
                    <mxGeometry x="481" y="841" width="120" height="334" as="geometry"/>
                </mxCell>
                <mxCell id="17" value="1" style="whiteSpace=wrap;html=1;aspect=fixed;fillColor=#fff2cc;strokeColor=#d6b656;" vertex="1" parent="1">
                    <mxGeometry x="498" y="1084" width="80" height="80" as="geometry"/>
                </mxCell>
                <mxCell id="18" value="2" style="whiteSpace=wrap;html=1;aspect=fixed;fillColor=#fff2cc;strokeColor=#d6b656;" vertex="1" parent="1">
                    <mxGeometry x="498" y="998" width="80" height="80" as="geometry"/>
                </mxCell>
                <mxCell id="20" value="" style="endArrow=none;dashed=1;html=1;dashPattern=1 3;strokeWidth=2;" edge="1" parent="1" source="8" target="16">
                    <mxGeometry width="50" height="50" relative="1" as="geometry">
                        <mxPoint x="358" y="814" as="sourcePoint"/>
                        <mxPoint x="408" y="764" as="targetPoint"/>
                    </mxGeometry>
                </mxCell>
                <mxCell id="21" value="&lt;font style=&quot;font-size: 16px;&quot;&gt;&lt;b&gt;NY STACK&lt;/b&gt;&lt;/font&gt;" style="edgeLabel;html=1;align=center;verticalAlign=middle;resizable=0;points=[];" vertex="1" connectable="0" parent="20">
                    <mxGeometry x="-0.1716" y="3" relative="1" as="geometry">
                        <mxPoint as="offset"/>
                    </mxGeometry>
                </mxCell>
                <mxCell id="22" value="" style="endArrow=none;dashed=1;html=1;dashPattern=1 3;strokeWidth=2;" edge="1" parent="1" source="4" target="14">
                    <mxGeometry width="50" height="50" relative="1" as="geometry">
                        <mxPoint x="303" y="1018" as="sourcePoint"/>
                        <mxPoint x="491" y="1018" as="targetPoint"/>
                    </mxGeometry>
                </mxCell>
                <mxCell id="23" value="&lt;font style=&quot;font-size: 16px;&quot;&gt;&lt;b&gt;NY STACK&lt;/b&gt;&lt;/font&gt;" style="edgeLabel;html=1;align=center;verticalAlign=middle;resizable=0;points=[];" vertex="1" connectable="0" parent="22">
                    <mxGeometry x="-0.1716" y="3" relative="1" as="geometry">
                        <mxPoint as="offset"/>
                    </mxGeometry>
                </mxCell>
                <mxCell id="24" value="" style="rounded=0;whiteSpace=wrap;html=1;fillColor=#dae8fc;strokeColor=#6c8ebf;" vertex="1" parent="1">
                    <mxGeometry x="173.43" y="1242" width="120" height="334" as="geometry"/>
                </mxCell>
                <mxCell id="25" value="1" style="whiteSpace=wrap;html=1;aspect=fixed;fillColor=#fff2cc;strokeColor=#d6b656;" vertex="1" parent="1">
                    <mxGeometry x="193.43" y="1489" width="80" height="80" as="geometry"/>
                </mxCell>
                <mxCell id="26" value="3" style="whiteSpace=wrap;html=1;aspect=fixed;fillColor=#fff2cc;strokeColor=#d6b656;" vertex="1" parent="1">
                    <mxGeometry x="66" y="1242" width="80" height="80" as="geometry"/>
                </mxCell>
                <mxCell id="27" value="" style="edgeStyle=elbowEdgeStyle;elbow=vertical;endArrow=classic;html=1;curved=0;rounded=0;endSize=8;startSize=8;exitX=0.5;exitY=0;exitDx=0;exitDy=0;entryX=0.5;entryY=0;entryDx=0;entryDy=0;" edge="1" parent="1" source="26" target="24">
                    <mxGeometry width="50" height="50" relative="1" as="geometry">
                        <mxPoint x="267" y="1229" as="sourcePoint"/>
                        <mxPoint x="123" y="1216" as="targetPoint"/>
                        <Array as="points">
                            <mxPoint x="169" y="1211"/>
                        </Array>
                    </mxGeometry>
                </mxCell>
                <mxCell id="28" value="&lt;font style=&quot;font-size: 16px;&quot;&gt;&lt;b&gt;Push()&lt;/b&gt;&lt;/font&gt;" style="edgeLabel;html=1;align=center;verticalAlign=middle;resizable=0;points=[];" vertex="1" connectable="0" parent="27">
                    <mxGeometry x="-0.1383" y="2" relative="1" as="geometry">
                        <mxPoint as="offset"/>
                    </mxGeometry>
                </mxCell>
                <mxCell id="29" value="" style="rounded=0;whiteSpace=wrap;html=1;fillColor=#dae8fc;strokeColor=#6c8ebf;" vertex="1" parent="1">
                    <mxGeometry x="481" y="1242" width="120" height="334" as="geometry"/>
                </mxCell>
                <mxCell id="30" value="1" style="whiteSpace=wrap;html=1;aspect=fixed;fillColor=#fff2cc;strokeColor=#d6b656;" vertex="1" parent="1">
                    <mxGeometry x="498" y="1485" width="80" height="80" as="geometry"/>
                </mxCell>
                <mxCell id="31" value="2" style="whiteSpace=wrap;html=1;aspect=fixed;fillColor=#fff2cc;strokeColor=#d6b656;" vertex="1" parent="1">
                    <mxGeometry x="498" y="1399" width="80" height="80" as="geometry"/>
                </mxCell>
                <mxCell id="32" value="" style="endArrow=none;dashed=1;html=1;dashPattern=1 3;strokeWidth=2;" edge="1" parent="1" source="24" target="29">
                    <mxGeometry width="50" height="50" relative="1" as="geometry">
                        <mxPoint x="358" y="1215" as="sourcePoint"/>
                        <mxPoint x="408" y="1165" as="targetPoint"/>
                    </mxGeometry>
                </mxCell>
                <mxCell id="33" value="&lt;font style=&quot;font-size: 16px;&quot;&gt;&lt;b&gt;NY STACK&lt;/b&gt;&lt;/font&gt;" style="edgeLabel;html=1;align=center;verticalAlign=middle;resizable=0;points=[];" vertex="1" connectable="0" parent="32">
                    <mxGeometry x="-0.1716" y="3" relative="1" as="geometry">
                        <mxPoint as="offset"/>
                    </mxGeometry>
                </mxCell>
                <mxCell id="34" value="2" style="whiteSpace=wrap;html=1;aspect=fixed;fillColor=#fff2cc;strokeColor=#d6b656;" vertex="1" parent="1">
                    <mxGeometry x="193.43" y="1401" width="80" height="80" as="geometry"/>
                </mxCell>
                <mxCell id="35" value="3" style="whiteSpace=wrap;html=1;aspect=fixed;fillColor=#d5e8d4;strokeColor=#82b366;" vertex="1" parent="1">
                    <mxGeometry x="625" y="1249" width="80" height="80" as="geometry"/>
                </mxCell>
                <mxCell id="36" value="" style="edgeStyle=elbowEdgeStyle;elbow=vertical;endArrow=classic;html=1;curved=0;rounded=0;endSize=8;startSize=8;entryX=0.5;entryY=0;entryDx=0;entryDy=0;" edge="1" parent="1" source="41">
                    <mxGeometry width="50" height="50" relative="1" as="geometry">
                        <mxPoint x="535" y="1242" as="sourcePoint"/>
                        <mxPoint x="662" y="1242" as="targetPoint"/>
                        <Array as="points">
                            <mxPoint x="598" y="1211"/>
                        </Array>
                    </mxGeometry>
                </mxCell>
                <mxCell id="38" value="&lt;b&gt;&lt;font style=&quot;font-size: 16px;&quot;&gt;Pop()&lt;/font&gt;&lt;/b&gt;" style="edgeLabel;html=1;align=center;verticalAlign=middle;resizable=0;points=[];" vertex="1" connectable="0" parent="36">
                    <mxGeometry x="-0.2275" y="-1" relative="1" as="geometry">
                        <mxPoint as="offset"/>
                    </mxGeometry>
                </mxCell>
                <mxCell id="41" value="3" style="whiteSpace=wrap;html=1;aspect=fixed;fillColor=#d5e8d4;strokeColor=#82b366;dashed=1;dashPattern=1 1;" vertex="1" parent="1">
                    <mxGeometry x="498" y="1313" width="80" height="80" as="geometry"/>
                </mxCell>
                <mxCell id="43" value="&lt;b&gt;&lt;font style=&quot;font-size: 14px;&quot;&gt;Top&lt;/font&gt;&lt;/b&gt;" style="text;html=1;align=center;verticalAlign=middle;whiteSpace=wrap;rounded=0;" vertex="1" parent="1">
                    <mxGeometry x="293.43" y="450" width="60" height="30" as="geometry"/>
                </mxCell>
                <mxCell id="45" value="&lt;b&gt;&lt;font style=&quot;font-size: 14px;&quot;&gt;Top&lt;/font&gt;&lt;/b&gt;" style="text;html=1;align=center;verticalAlign=middle;whiteSpace=wrap;rounded=0;" vertex="1" parent="1">
                    <mxGeometry x="298" y="841" width="60" height="30" as="geometry"/>
                </mxCell>
                <mxCell id="47" value="&lt;b&gt;&lt;font style=&quot;font-size: 14px;&quot;&gt;Top&lt;/font&gt;&lt;/b&gt;" style="text;html=1;align=center;verticalAlign=middle;whiteSpace=wrap;rounded=0;" vertex="1" parent="1">
                    <mxGeometry x="293.43" y="1242" width="60" height="30" as="geometry"/>
                </mxCell>
                <mxCell id="48" value="&lt;b&gt;&lt;font style=&quot;font-size: 14px;&quot;&gt;Top&lt;/font&gt;&lt;/b&gt;" style="text;html=1;align=center;verticalAlign=middle;whiteSpace=wrap;rounded=0;" vertex="1" parent="1">
                    <mxGeometry x="598" y="450" width="60" height="30" as="geometry"/>
                </mxCell>
                <mxCell id="49" value="&lt;b&gt;&lt;font style=&quot;font-size: 14px;&quot;&gt;Top&lt;/font&gt;&lt;/b&gt;" style="text;html=1;align=center;verticalAlign=middle;whiteSpace=wrap;rounded=0;" vertex="1" parent="1">
                    <mxGeometry x="606" y="841" width="60" height="30" as="geometry"/>
                </mxCell>
                <mxCell id="50" value="&lt;font style=&quot;font-size: 24px;&quot;&gt;&lt;b style=&quot;&quot;&gt;&lt;span style=&quot;&quot; data-end=&quot;15&quot; data-start=&quot;7&quot;&gt;&lt;font style=&quot;&quot;&gt;LIFO&lt;/font&gt;:&lt;/span&gt;&amp;nbsp;&lt;/b&gt;&lt;/font&gt;&lt;div&gt;&lt;font style=&quot;font-size: 20px;&quot;&gt;&lt;b&gt;&lt;span style=&quot;&quot; data-end=&quot;49&quot; data-start=&quot;25&quot;&gt;&lt;br&gt;&lt;/span&gt;&lt;/b&gt;&lt;/font&gt;&lt;/div&gt;&lt;div&gt;&lt;font style=&quot;font-size: 20px;&quot;&gt;&lt;b&gt;&lt;span style=&quot;&quot; data-end=&quot;49&quot; data-start=&quot;25&quot;&gt;&quot;Last In, First Out&quot;&lt;/span&gt;&lt;/b&gt;&lt;/font&gt;&lt;/div&gt;&lt;div&gt;&lt;font style=&quot;font-size: 20px;&quot;&gt;&lt;b&gt;&lt;br&gt;&lt;/b&gt;&lt;/font&gt;&lt;/div&gt;&lt;div&gt;&lt;font style=&quot;font-size: 20px;&quot;&gt;&lt;b style=&quot;&quot;&gt;prinsippet som brukes i en &lt;span style=&quot;&quot; data-end=&quot;101&quot; data-start=&quot;84&quot;&gt;stack (stakk)&lt;/span&gt;&lt;/b&gt;&lt;/font&gt;&lt;/div&gt;" style="text;html=1;align=left;verticalAlign=middle;whiteSpace=wrap;rounded=0;fillColor=#d5e8d4;strokeColor=#82b366;" vertex="1" parent="1">
                    <mxGeometry x="-357" y="891" width="372" height="172" as="geometry"/>
                </mxCell>
            </root>
        </mxGraphModel>
    </diagram>
</mxfile>